<svg xmlns="http://www.w3.org/2000/svg" viewBox="0 0 297.45 419.88"><title>Zasób 1</title><g id="Warstwa_2" data-name="Warstwa 2"><g id="Warstwa_1-2" data-name="Warstwa 1"><polygon points="233.09 15.55 208.4 15.55 234.08 43.41 234.08 56.67 181.2 56.67 181.2 41.14 206.87 41.14 181.2 13.28 181.2 0 233.09 0 233.09 15.55" fill="#151515"/><polygon points="170.72 15.55 146.03 15.55 171.7 43.41 171.7 56.67 118.82 56.67 118.82 41.14 144.49 41.14 118.82 13.28 118.82 0 170.72 0 170.72 15.55" fill="#151515"/><polygon points="108.95 16.18 82.31 16.18 82.31 40.49 108.95 40.49 108.95 56.67 63.37 56.67 63.37 0 108.95 0 108.95 16.18" fill="#151515"/><polygon points="27.07 386.16 0 82.54 297.45 82.54 270.35 386.11 148.54 419.88 27.07 386.16" fill="#1673b6"/><polygon points="148.73 394.07 247.15 366.78 270.31 107.36 148.73 107.36 148.73 394.07" fill="#35a9db"/><polygon points="148.72 217.36 198 217.36 201.4 179.23 148.72 179.23 148.72 141.99 148.85 141.99 242.1 141.99 241.21 151.98 232.06 254.6 148.72 254.6 148.72 217.36" fill="#fff"/><polygon points="148.95 314.07 148.79 314.12 107.31 302.92 104.66 273.22 84.51 273.22 67.28 273.22 72.5 331.69 148.78 352.86 148.95 352.81 148.95 314.07" fill="#ebebeb"/><polygon points="194.84 253.02 190.35 302.89 148.82 314.1 148.82 352.84 225.16 331.69 225.72 325.4 232.2 253.02 194.84 253.02" fill="#fff"/><polygon points="148.85 141.99 148.85 165.12 148.85 179.14 148.85 179.23 59.03 179.23 59.03 179.23 58.91 179.23 58.16 170.86 56.46 151.98 55.57 141.99 148.85 141.99" fill="#ebebeb"/><polygon points="148.72 217.37 148.72 240.5 148.72 254.51 148.72 254.6 107.9 254.6 107.9 254.6 107.78 254.6 107.03 246.24 105.33 227.36 104.44 217.37 148.72 217.37" fill="#ebebeb"/></g></g></svg>